Coordinates
version=1
nRows=13
nColumns=40
inDegrees=yes

Units are S.I. units (second, meters, Newtons, ...)
If the header above contains a line with 'inDegrees', this indicates whether rotational values are in degrees (yes) or radians (no).

endheader
time	pelvis_tilt	pelvis_list	pelvis_rotation	pelvis_tx	pelvis_ty	pelvis_tz	hip_flexion_r	hip_adduction_r	hip_rotation_r	knee_angle_r	knee_angle_r_beta	ankle_angle_r	subtalar_angle_r	mtp_angle_r	hip_flexion_l	hip_adduction_l	hip_rotation_l	knee_angle_l	knee_angle_l_beta	ankle_angle_l	subtalar_angle_l	mtp_angle_l	lumbar_extension	lumbar_bending	lumbar_rotation	arm_flex_r	arm_add_r	arm_rot_r	elbow_flex_r	pro_sup_r	wrist_flex_r	wrist_dev_r	arm_flex_l	arm_add_l	arm_rot_l	elbow_flex_l	pro_sup_l	wrist_flex_l	wrist_dev_l
     14.60000000	     24.67531949	     -8.63716011	    152.48041303	      0.40279505	      0.71403581	     -0.67855341	     84.13808210	     25.51706117	     14.31400597	     71.76290800	      1.25249903	     15.59116739	      0.00000000	      0.00000000	     78.50397440	    -40.60353706	    -18.59372326	     81.53933925	      1.42312994	     20.85549498	      0.00000000	      0.00000000	    -58.94110929	    -24.82298473	    -89.92835531	    -89.93616839	     89.99339969	    -89.93620134	      0.01870272	     89.74005319	      0.00000000	      0.00000000	    -87.34621707	     -3.05148686	    -89.94368523	     71.26940388	     25.33660695	      0.00000000	      0.00000000
     14.60500000	     24.14805657	     -8.61453259	    152.54262378	      0.40378819	      0.71150485	     -0.67860606	     84.07365508	     25.62736877	     14.57291742	     72.43310012	      1.26419608	     15.68208864	      0.00000000	      0.00000000	     78.37513135	    -40.49973966	    -18.41343262	     82.03032548	      1.43169927	     20.97841270	      0.00000000	      0.00000000	    -59.06068361	    -24.77347213	    -89.92842735	    -89.93611091	     89.99342317	    -89.93612497	      0.01867467	     89.74721839	      0.00000000	      0.00000000	    -87.13562070	     -3.04189255	    -89.94306950	     71.36151089	     25.35287593	      0.00000000	      0.00000000
     14.61000000	     23.49022870	     -8.45893527	    152.59129432	      0.40448351	      0.70908468	     -0.67867591	     83.91009060	     25.66762965	     14.57955158	     73.24146555	      1.27830472	     15.93529053	      0.00000000	      0.00000000	     78.08263292	    -40.52645999	    -18.33437597	     82.59674064	      1.44158508	     21.17079601	      0.00000000	      0.00000000	    -59.34156686	    -24.67076311	    -89.92946627	    -89.93630083	     89.99343452	    -89.93633542	      0.01868275	     89.74715556	      0.00000000	      0.00000000	    -86.93682543	     -2.94730081	    -89.94266251	     71.45862010	     25.38339811	      0.00000000	      0.00000000
     14.61500000	     22.78508496	     -8.27418652	    152.65228190	      0.40504643	      0.70696703	     -0.67865450	     83.58550431	     25.70276341	     14.66930849	     73.92400008	      1.29021720	     16.25478432	      0.00000000	      0.00000000	     77.71434058	    -40.48905897	    -18.20752308	     83.13302655	      1.45094503	     21.36919486	      0.00000000	      0.00000000	    -59.70972767	    -24.53414952	    -89.93007990	    -89.93637397	     89.99345142	    -89.93640516	      0.01866427	     89.75049876	      0.00000000	      0.00000000	    -86.74471667	     -2.89579435	    -89.94222432	     71.56300363	     25.42346559	      0.00000000	      0.00000000
     14.62000000	     21.65369752	     -7.68675930	    152.79484447	      0.40464275	      0.70638067	     -0.67862657	     82.64243609	     25.47511178	     14.29897777	     74.59938259	      1.30200485	     16.96246717	      0.00000000	      0.00000000	     76.65750399	    -40.50407221	    -18.21733492	     83.57344700	      1.45863182	     21.74249128	      0.00000000	      0.00000000	    -60.71765938	    -24.15351511	    -89.93101432	    -89.93652883	     89.99346632	    -89.93655786	      0.01862586	     89.75263261	      0.00000000	      0.00000000	    -86.64428886	     -2.86713125	    -89.94187570	     71.63347912	     25.56583532	      0.00000000	      0.00000000
     14.62500000	     21.19140067	     -7.62971866	    152.84747687	      0.40569583	      0.70413654	     -0.67869526	     82.55416660	     25.58343280	     14.50233419	     75.13170246	      1.31129558	     17.03999596	      0.00000000	      0.00000000	     76.59041108	    -40.42828888	    -17.98331690	     84.01917176	      1.46641118	     21.79499175	      0.00000000	      0.00000000	    -60.81903783	    -24.10093165	    -89.93095055	    -89.93648286	     89.99347590	    -89.93649082	      0.01863200	     89.76198928	      0.00000000	      0.00000000	    -86.51828514	     -2.84579773	    -89.94100512	     71.65661091	     25.59115168	      0.00000000	      0.00000000
     14.63000000	     20.31932437	     -7.28035990	    152.95787634	      0.40581124	      0.70259890	     -0.67856346	     82.03166008	     25.42471638	     14.26345249	     75.87114856	      1.32420135	     17.53271533	      0.00000000	      0.00000000	     76.01143224	    -40.02606043	    -17.57615767	     84.37032741	      1.47254000	     22.43768907	      0.00000000	      0.00000000	    -61.44433153	    -23.84712386	    -89.93231535	    -89.93659506	     89.99348836	    -89.93662524	      0.01861247	     89.75894671	      0.00000000	      0.00000000	    -86.36237164	     -2.76052299	    -89.94077753	     71.80503636	     25.76158004	      0.00000000	      0.00000000
     14.63500000	     19.80810071	     -7.17682059	    153.03374418	      0.40670056	      0.70050572	     -0.67867358	     81.94291786	     25.38423723	     14.21460738	     76.46965270	      1.33464722	     17.63319064	      0.00000000	      0.00000000	     75.86120664	    -39.95454771	    -17.38629922	     84.80920504	      1.48019986	     22.49680163	      0.00000000	      0.00000000	    -61.62604954	    -23.76510287	    -89.93239874	    -89.93665779	     89.99349571	    -89.93668976	      0.01862032	     89.75978406	      0.00000000	      0.00000000	    -86.25077551	     -2.67781227	    -89.94042427	     71.90125765	     25.82409787	      0.00000000	      0.00000000
     14.64000000	     19.25978146	     -7.01049527	    153.14575327	      0.40743709	      0.69861442	     -0.67868244	     81.71166416	     25.45484358	     14.30527496	     77.02197174	      1.34428700	     17.87400654	      0.00000000	      0.00000000	     75.66734344	    -39.86141730	    -17.16432210	     85.25132097	      1.48791624	     22.61496020	      0.00000000	      0.00000000	    -61.88266541	    -23.60570141	    -89.93283911	    -89.93652022	     89.99350334	    -89.93655673	      0.01861602	     89.76095689	      0.00000000	      0.00000000	    -86.12411205	     -2.58793024	    -89.93990021	     72.01486413	     25.89459344	      0.00000000	      0.00000000
     14.64500000	     18.70776585	     -6.85856311	    153.22977204	      0.40817249	      0.69680190	     -0.67879499	     81.50626874	     25.42963070	     14.26092082	     77.57545138	      1.35394705	     18.08192896	      0.00000000	      0.00000000	     75.42810380	    -39.78994545	    -16.99112092	     85.65378236	      1.49494052	     22.74599387	      0.00000000	      0.00000000	    -62.13577973	    -23.50774803	    -89.93312083	    -89.93636197	     89.99350656	    -89.93641021	      0.01862546	     89.76430059	      0.00000000	      0.00000000	    -86.00923917	     -2.52575706	    -89.93944309	     72.11329800	     25.96279143	      0.00000000	      0.00000000
     14.65000000	     17.84097974	     -6.34250294	    153.49434040	      0.40817918	      0.69629917	     -0.67845732	     80.76685806	     25.12817550	     13.86701206	     78.02055793	      1.36171562	     18.60536279	      0.00000000	      0.00000000	     74.75234502	    -39.64492417	    -16.75540477	     85.98581152	      1.50073552	     22.97944380	      0.00000000	      0.00000000	    -62.91164643	    -23.04429003	    -89.93374054	    -89.93639422	     89.99351362	    -89.93642899	      0.01859486	     89.76600282	      0.00000000	      0.00000000	    -85.94563877	     -2.48372146	    -89.93937300	     72.16407855	     26.19052951	      0.00000000	      0.00000000
     14.65500000	     17.44608735	     -6.27664020	    153.54931428	      0.40922866	      0.69438142	     -0.67857789	     80.71059255	     25.17791486	     13.91722639	     78.46541376	      1.36947982	     18.68021448	      0.00000000	      0.00000000	     74.71192317	    -39.55619749	    -16.52175379	     86.36266850	      1.50731292	     23.04126629	      0.00000000	      0.00000000	    -62.99596695	    -22.99755107	    -89.93359280	    -89.93634277	     89.99351627	    -89.93637809	      0.01861215	     89.76641627	      0.00000000	      0.00000000	    -85.83985989	     -2.44767920	    -89.93906948	     72.18471032	     26.23225575	      0.00000000	      0.00000000
     14.66000000	     17.01015280	     -6.19790852	    153.60533047	      0.41017405	      0.69261346	     -0.67860164	     80.61266386	     25.15069581	     13.89278587	     78.93173530	      1.37761867	     18.80163646	      0.00000000	      0.00000000	     74.59202646	    -39.50468891	    -16.36640034	     86.73231599	      1.51376448	     23.11044241	      0.00000000	      0.00000000	    -63.12722464	    -22.93473934	    -89.93354296	    -89.93634449	     89.99352267	    -89.93637777	      0.01861173	     89.77087863	      0.00000000	      0.00000000	    -85.71219698	     -2.42425673	    -89.93884911	     72.24545103	     26.27545833	      0.00000000	      0.00000000
